<svg xmlns="http://www.w3.org/2000/svg" viewBox="0 0 26.84 24"><defs><style>.cls-1{fill:none;stroke:#333;stroke-miterlimit:10;stroke-width:2px;fill-rule:evenodd;}</style></defs><title>Account Icon</title><g id="Layer_2" data-name="Layer 2"><g id="MAIN_NAV" data-name="MAIN NAV"><g id="Account_Icon" data-name="Account Icon"><path class="cls-1" d="M16.4,15.21v-.08a3,3,0,0,1,.76-2,7.68,7.68,0,0,0,1.95-5.29C19.11,4.05,17.25,1,13.85,1S8.58,4.05,8.58,7.81a7.68,7.68,0,0,0,1.95,5.29,2.65,2.65,0,0,1,.76,1.79v.17a2.13,2.13,0,0,1-2.12,2.13l-3,.92C3.3,18.11,1,19.48,1,22.32V23H25.84V21.83c0-2.57-2.08-3.72-4.64-3.72l-2.82-.92A2,2,0,0,1,16.4,15.21Z"/></g></g></g></svg>