<svg xmlns="http://www.w3.org/2000/svg" viewBox="0 0 32.73 24"><defs><style>.cls-1{fill:#333;}.cls-1,.cls-2{fill-rule:evenodd;}.cls-2{fill:none;stroke:#333;stroke-miterlimit:10;stroke-width:2px;}</style></defs><title>Cart Icon</title><g id="Layer_2" data-name="Layer 2"><g id="MAIN_NAV" data-name="MAIN NAV"><g id="Cart_Icon" data-name="Cart Icon"><path class="cls-1" d="M16,21.5A2.5,2.5,0,1,1,13.5,19,2.5,2.5,0,0,1,16,21.5Z"/><path class="cls-1" d="M30,21.5A2.5,2.5,0,1,1,27.5,19,2.5,2.5,0,0,1,30,21.5Z"/><path class="cls-2" d="M27.75,13H14.81a1.8,1.8,0,0,1-1.76-1.42L10.5,3h21l-1.71,8.36A2.09,2.09,0,0,1,27.75,13Z"/><path class="cls-2" d="M0,1H2.37a3.11,3.11,0,0,1,3,2.32L9,14.25A3.68,3.68,0,0,0,12.55,17H30"/></g></g></g></svg>